#!OML:ASF H:\Terrain\Patient Classification 1\Terrain2\Thursday\justin.ASF
:FULLY-SPECIFIED
:DEGREES
2359
root 30.5406 17.4428 -21.501 900.275 176.652 538.834
lowerback 6.01947 -1.2589 -3.26681
upperback 2.09728 -1.81157 3.42659
thorax -0.993495 -0.927517 5.51225
lowerneck -13.0816 -2.33277 -11.5207
upperneck 36.8466 -2.07055 5.32147
head 15.2976 -1.76975 3.96704
rclavicle -6.65929e-015 -7.95139e-016
rhumerus -34.6746 -9.70874 -74.8563
rradius 33.1151
rwrist -14.2643
rhand -20.6686 11.9927
rfingers 7.12502
rthumb 5.69427 -17.9108
lclavicle -6.65929e-015 -7.95139e-016
lhumerus -31.6081 10.4668 77.7275
lradius 32.9255
lwrist 6.97177
lhand -21.6522 21.8677
lfingers 7.12502
lthumb 4.74462 51.7946
rfemur -17.6546 -2.68374 22.773
rtibia 43.0716
rfoot -22.5802 -1.29851
rtoes 11.8006
lfemur -3.71677 1.35326 -16.5136
ltibia 23.2393
lfoot -16.7588 -19.2628
ltoes 11.4646
2360
root 30.5534 17.4381 -21.4924 900.389 176.979 538.719
lowerback 5.89853 -1.20419 -3.06608
upperback 2.09441 -1.72632 3.34291
thorax -0.948623 -0.884809 5.30063
lowerneck -12.9659 -2.34846 -11.2219
upperneck 36.8281 -2.17275 5.24115
head 15.2643 -1.78346 3.86071
rclavicle 1.46107e-014 -4.77083e-015
rhumerus -35.0432 -10.3165 -74.8621
rradius 32.8196
rwrist -14.0201
rhand -19.9174 11.8985
rfingers 7.12502
rthumb 6.41953 -17.9842
lclavicle 1.46107e-014 -4.77083e-015
lhumerus -31.3984 10.2376 77.4973
lradius 32.9819
lwrist 7.29278
lhand -21.5599 22.1898
lfingers 7.12502
lthumb 4.83371 52.1147
rfemur -17.649 -3.48953 23.1855
rtibia 43.137
rfoot -22.4557 -1.81096
rtoes 11.4888
lfemur -3.90476 1.61874 -16.4292
ltibia 23.4254
lfoot -16.9529 -19.1594
ltoes 10.9323
2361
root 30.5666 17.4387 -21.482 900.522 177.227 538.611
lowerback 5.87501 -1.12723 -2.79871
upperback 1.99562 -1.60886 3.21588
thorax -1.06302 -0.820029 5.00883
lowerneck -12.7688 -2.38835 -10.8573
upperneck 36.8369 -2.35044 5.18871
head 15.2315 -1.81758 3.74349
rclavicle 8.34896e-015 -1.66979e-014
rhumerus -35.6038 -10.9617 -74.913
rradius 32.5792
rwrist -13.7029
rhand -19.5806 11.6391
rfingers 7.12502
rthumb 6.74467 -18.2335
lclavicle 8.34896e-015 -1.66979e-014
lhumerus -31.3634 9.74545 77.2801
lradius 33.1704
lwrist 7.53556
lhand -20.9684 21.819
lfingers 7.12502
lthumb 5.40481 51.7301
rfemur -17.5975 -4.38405 23.5931
rtibia 43.1744
rfoot -22.1243 -2.30468
rtoes 9.54726
lfemur -4.08433 1.95568 -16.3225
ltibia 23.6283
lfoot -17.1011 -19.2456
ltoes 10.7276
2362
root 30.5779 17.4298 -21.4715 900.605 177.421 538.646
lowerback 5.90355 -0.943315 -2.66639
upperback 1.9147 -1.35871 3.00633
thorax -1.19818 -0.689283 4.70059
lowerneck -12.5411 -2.47398 -10.4146
upperneck 36.8403 -2.66484 5.26083
head 15.2017 -1.88122 3.64427
rclavicle 1.26725e-014 -9.93923e-015
rhumerus -36.2093 -11.9033 -74.9483
rradius 32.2945
rwrist -13.2823
rhand -20.1642 11.3507
rfingers 7.12502
rthumb 6.18132 -18.5391
lclavicle 1.26725e-014 -9.93923e-015
lhumerus -31.2054 8.89632 77.1861
lradius 33.3067
lwrist 7.65752
lhand -20.4373 21.2449
lfingers 7.12502
lthumb 5.91767 51.1423
rfemur -17.5238 -5.2729 23.832
rtibia 43.1834
rfoot -21.6962 -2.67053
rtoes 7.354
lfemur -4.15423 2.25899 -16.3514
ltibia 23.793
lfoot -17.1982 -19.4646
ltoes 11.1078
2363
root 30.5852 17.4193 -21.4597 900.642 177.624 538.88
lowerback 5.9081 -0.797733 -2.83804
upperback 1.98528 -1.17819 2.82096
thorax -1.14652 -0.600958 4.59202
lowerneck -12.6118 -2.56315 -10.0546
upperneck 36.8 -2.88619 5.23473
head 15.212 -1.92636 3.53138
rclavicle 2.23633e-015 -1.27222e-014
rhumerus -36.4811 -12.9052 -74.8596
rradius 31.9773
rwrist -13.1235
rhand -20.3319 11.5819
rfingers 7.12502
rthumb 6.01942 -18.3126
lclavicle 2.23633e-015 -1.27222e-014
lhumerus -30.8085 8.3292 77.1818
lradius 33.371
lwrist 7.76757
lhand -20.956 21.2392
lfingers 7.12502
lthumb 5.41687 51.15
rfemur -17.4032 -6.04607 23.8118
rtibia 43.1171
rfoot -21.3954 -2.77986
rtoes 5.18207
lfemur -4.17138 2.31948 -16.6257
ltibia 23.9559
lfoot -17.4598 -19.2903
ltoes 10.8928
2364
root 30.5911 17.4097 -21.4462 900.768 177.878 538.949
lowerback 5.78441 -0.859554 -3.08907
upperback 1.94054 -1.27134 2.90684
thorax -1.10628 -0.648593 4.82829
lowerneck -12.4517 -2.47685 -10.0556
upperneck 36.7575 -2.74046 5.13135
head 15.1362 -1.88044 3.50852
rclavicle 1.27222e-014 -3.57812e-014
rhumerus -36.7535 -13.2535 -74.5894
rradius 31.6484
rwrist -12.4038
rhand -20.1744 11.7383
rfingers 7.12502
rthumb 6.17148 -18.1518
lclavicle 1.27222e-014 -3.57812e-014
lhumerus -30.9813 8.48808 77.1681
lradius 33.6213
lwrist 8.07291
lhand -21.2423 21.8125
lfingers 7.12502
lthumb 5.14035 51.7301
rfemur -17.299 -6.71443 23.9569
rtibia 42.9474
rfoot -21.2409 -2.68757
rtoes 4.24341
lfemur -4.32014 2.40663 -16.7407
ltibia 24.1414
lfoot -17.7326 -18.9342
ltoes 10.3263
2365
root 30.5972 17.4048 -21.4336 900.951 177.981 538.739
lowerback 5.53253 -1.04098 -2.92429
upperback 2.20852 -1.49927 3.15213
thorax -0.66254 -0.778506 4.99395
lowerneck -13.3032 -2.4435 -10.5321
upperneck 36.7997 -2.47735 5.19937
head 15.3445 -1.82135 3.66917
rclavicle -1.43125e-014 1.11319e-014
rhumerus -36.1237 -13.5309 -74.3801
rradius 31.1401
rwrist -11.4041
rhand -19.8217 11.6366
rfingers 7.12502
rthumb 6.51197 -18.2433
lclavicle -1.43125e-014 1.11319e-014
lhumerus -30.5088 9.15814 77.358
lradius 33.7395
lwrist 8.25068
lhand -21.2503 22.1081
lfingers 7.12502
lthumb 5.1327 52.0259
rfemur -17.1804 -7.38415 24.3908
rtibia 42.6553
rfoot -21.0642 -2.43449
rtoes 5.48848
lfemur -4.5527 2.50727 -16.5382
ltibia 24.3205
lfoot -17.9933 -18.7411
ltoes 9.76407
2366
root 30.6053 17.4036 -21.416 901.036 178.083 538.464
lowerback 5.39055 -0.987139 -2.47238
upperback 2.24906 -1.40353 3.10384
thorax -0.565417 -0.730482 4.6766
lowerneck -13.3273 -2.60909 -10.3135
upperneck 36.8356 -2.82829 5.28794
head 15.402 -1.9288 3.61154
rclavicle 3.00165e-014 -2.66371e-014
rhumerus -36.412 -14.2507 -74.3611
rradius 30.784
rwrist -11.4444
rhand -19.2658 12.2381
rfingers 7.12502
rthumb 7.04857 -17.6245
lclavicle 3.00165e-014 -2.66371e-014
lhumerus -30.2254 8.56354 77.4134
lradius 33.8006
lwrist 8.54753
lhand -21.9128 22.4766
lfingers 7.12502
lthumb 4.49294 52.4089
rfemur -16.9136 -7.95403 24.8336
rtibia 42.2543
rfoot -20.8037 -1.90643
rtoes 8.20084
lfemur -4.64951 2.52004 -16.2587
ltibia 24.4893
lfoot -18.1922 -18.7325
ltoes 10.0944
2367
root 30.613 17.401 -21.3896 901.173 178.391 538.414
lowerback 5.1997 -0.842961 -2.06641
upperback 2.30996 -1.19303 2.84739
thorax -0.432642 -0.624443 4.16227
lowerneck -13.5607 -2.76801 -9.93693
upperneck 36.9033 -3.20106 5.39441
head 15.5224 -2.01918 3.53069
rclavicle 1.08338e-014 5.1684e-015
rhumerus -36.7203 -15.0788 -74.5907
rradius 30.3885
rwrist -11.7929
rhand -19.2376 13.7939
rfingers 7.12502
rthumb 7.07584 -16.0679
lclavicle 1.08338e-014 5.1684e-015
lhumerus -29.9329 7.69362 77.3175
lradius 34.0164
lwrist 8.92602
lhand -22.7631 22.8022
lfingers 7.12502
lthumb 3.6719 52.7503
rfemur -16.6935 -8.33803 25.0184
rtibia 41.7938
rfoot -20.6577 -1.54182
rtoes 10.9986
lfemur -4.69614 2.38191 -16.2667
ltibia 24.6137
lfoot -18.2245 -18.524
ltoes 10.8849
2368
root 30.6195 17.3973 -21.3621 901.403 178.725 538.544
lowerback 5.01461 -0.753158 -2.01446
upperback 2.19677 -1.07 2.65649
thorax -0.461995 -0.559359 3.92558
lowerneck -13.398 -2.5559 -9.48988
upperneck 36.832 -2.98011 5.25654
head 15.4065 -1.88148 3.42553
rclavicle -8.99501e-015 -1.11319e-014
rhumerus -37.1289 -15.7384 -74.6423
rradius 29.9644
rwrist -11.7815
rhand -19.4547 14.6077
rfingers 7.12502
rthumb 6.86625 -15.261
lclavicle -8.99501e-015 -1.11319e-014
lhumerus -29.9975 7.29745 77.1671
lradius 34.1374
lwrist 8.9081
lhand -22.2438 22.2602
lfingers 7.12502
lthumb 4.17332 52.199
rfemur -16.6014 -8.56503 25.0133
rtibia 41.2816
rfoot -20.6226 -1.75581
rtoes 12.5498
lfemur -4.78062 2.26952 -16.4689
ltibia 24.6995
lfoot -18.3512 -18.0703
ltoes 10.4617
